<svg width="18" height="19" viewBox="0 0 18 19" fill="none" xmlns="http://www.w3.org/2000/svg">
<g clip-path="url(#clip0_372_27192)">
<path d="M17.9905 9.66863C17.9905 8.93117 17.9293 8.39303 17.7968 7.83496H9.1792V11.1634H14.2375C14.1356 11.9906 13.5849 13.2363 12.361 14.0734L12.3439 14.1848L15.0686 16.2475L15.2574 16.2659C16.9911 14.7013 17.9905 12.3992 17.9905 9.66863" fill="#00997E"/>
<path d="M9.17919 18.4384C11.6573 18.4384 13.7378 17.6411 15.2574 16.2659L12.361 14.0734C11.586 14.6015 10.5457 14.9703 9.17919 14.9703C6.75201 14.9703 4.69197 13.4057 3.95762 11.2432L3.84998 11.2521L1.01679 13.3947L0.979736 13.4954C2.48907 16.4252 5.58936 18.4384 9.17919 18.4384Z" fill="#4DF285"/>
<path d="M3.95763 11.2431C3.76387 10.685 3.65173 10.087 3.65173 9.4692C3.65173 8.85129 3.76387 8.25338 3.94744 7.69531L3.94231 7.57645L1.0736 5.39941L0.979746 5.44304C0.357677 6.65886 0.000732422 8.02419 0.000732422 9.4692C0.000732422 10.9142 0.357677 12.2795 0.979746 13.4953L3.95763 11.2431" fill="#05DDB9"/>
<path d="M9.17919 3.96802C10.9027 3.96802 12.0653 4.69551 12.7282 5.30346L15.3185 2.83196C13.7276 1.38695 11.6573 0.5 9.17919 0.5C5.58936 0.5 2.48907 2.51305 0.979736 5.44292L3.94743 7.69519C4.69197 5.53265 6.75201 3.96802 9.17919 3.96802" fill="#CB0A0A"/>
</g>
<defs>
<clipPath id="clip0_372_27192">
<rect width="18" height="18" fill="white" transform="translate(0 0.5)"/>
</clipPath>
</defs>
</svg>
