<svg width="18" height="18" viewBox="0 0 18 18" fill="none" xmlns="http://www.w3.org/2000/svg">
<g clip-path="url(#clip0_372_27173)">
<path d="M3.78558 11.3427C3.78558 12.3855 2.94275 13.2285 1.89987 13.2285C0.856996 13.2285 0.0141602 12.3855 0.0141602 11.3427C0.0141602 10.2999 0.856996 9.45703 1.89994 9.45703H3.78551V11.3427L3.78558 11.3427ZM4.72847 11.3427C4.72847 10.2999 5.57131 9.45703 6.61418 9.45703C7.65706 9.45703 8.49989 10.2999 8.49989 11.3427V16.057C8.49989 17.0999 7.65706 17.9428 6.61411 17.9428C5.57138 17.9428 4.72847 17.0999 4.72847 16.057V11.3427V11.3427Z" fill="black"/>
<path d="M6.6143 3.77142C5.57142 3.77142 4.72852 2.92859 4.72852 1.88571C4.72852 0.842836 5.57149 0 6.6143 0C7.6571 0 8.50001 0.842836 8.50001 1.88571V3.77149H6.61423L6.6143 3.77142ZM6.6143 4.72859C7.65717 4.72859 8.50001 5.57142 8.50001 6.6143C8.50001 7.65717 7.65717 8.50001 6.61423 8.50001H1.88578C0.842836 8.50001 0 7.65717 0 6.61423C0 5.57149 0.842836 4.72859 1.88571 4.72859H6.61423H6.6143Z" fill="#00997E"/>
<path d="M14.1716 6.6143C14.1716 5.57142 15.0144 4.72852 16.0572 4.72852C17.1001 4.72852 17.943 5.57142 17.943 6.6143C17.943 7.65717 17.1001 8.50001 16.0572 8.50001H14.1716V6.61423V6.6143ZM13.2287 6.6143C13.2287 7.65717 12.3858 8.50001 11.3429 8.50001C10.3001 8.50001 9.45728 7.65717 9.45728 6.61423V1.88578C9.45728 0.842836 10.3001 0 11.3429 0C12.3857 0 13.2286 0.842836 13.2286 1.88571V6.61423L13.2287 6.6143Z" fill="#4DF285"/>
<path d="M11.3429 14.1713C12.3858 14.1713 13.2287 15.0142 13.2287 16.057C13.2287 17.0999 12.3858 17.9428 11.3429 17.9428C10.3001 17.9428 9.45728 17.0999 9.45728 16.057V14.1713H11.343H11.3429ZM11.3429 13.2285C10.3001 13.2285 9.45728 12.3855 9.45728 11.3427C9.45728 10.2999 10.3001 9.45703 11.343 9.45703H16.0715C17.1144 9.45703 17.9573 10.2999 17.9573 11.3427C17.9573 12.3855 17.1144 13.2285 16.0715 13.2285H11.343H11.3429Z" fill="#05DDB9"/>
</g>
<defs>
<clipPath id="clip0_372_27173">
<rect width="18" height="18" fill="white"/>
</clipPath>
</defs>
</svg>
